<?xml version="1.0" encoding="UTF-8"?><svg id="a" xmlns="http://www.w3.org/2000/svg" viewBox="0 0 1080 1080"><defs><style>.b{fill:#c7202f;}</style></defs><path class="b" d="M989.22,434.65c-7,4.74-14.62,8.36-22.62,10.81-8,2.42-16.36,3.68-24.88,3.68-17.17,0-33.56-5.07-47.4-14.65-4.39-3.03-8.42-6.49-12.07-10.26-.74,.16-1.52,.32-2.26,.45-7.32,1.36-14.81,2.1-22.3,2.23-5.78,7.71-12.04,15.2-18.75,22.3,19.36,11.68,39.75,10.1,47.88,8.78,7.16-1.13,14.36,.58,20.26,4.84s9.78,10.55,10.91,17.75c2.39,14.84-7.74,28.85-22.55,31.2-4.45,.71-11.52,1.55-20.1,1.55-17.78,0-44.27-3.58-69.6-20.72-3.23-2.16-6.32-4.48-9.29-6.94-.77,.55-1.58,1.06-2.36,1.61-2.45,1.65-5.1,2.9-7.91,3.68,3.9,15.88,5.94,32.46,5.94,49.5,0,146.43-119.13,265.55-265.55,265.55h-156.75c-11.13,13.65-26.75,28.36-48.56,42.2-31.94,20.23-99.93,50.82-118.42,50.82-2.13,0-3.61-.42-4.29-1.26-2.13-2.68,1.71-6.55,3.16-8,12.1-12.07,39.2-50.27,31.59-91.09-88.93-24.2-154.49-105.64-154.49-202.09v-27.43c0-131.33,106.83-238.16,238.16-238.16h265.75c79.18,0,148.2,44.17,183.76,109.16,.45-.32,.87-.61,1.29-.9,10.94-7.81,21.07-16.52,30.07-25.88,1.97-2.06,3.9-4.13,5.78-6.26,6.03-6.81,11.65-14.1,16.65-21.62,2.81-4.19,5.45-8.49,7.91-12.75,26.94-47.01,33.78-100.28,20.3-158.4-3.39-14.62,5.78-29.3,20.36-32.69,14.62-3.39,29.3,5.74,32.72,20.36,2.65,11.49,9.65,41.66,7.87,80.09-.71,16.36-2.94,32.56-6.58,48.17-2.55,11-5.87,21.84-9.87,32.4,3.42-2,6.65-4.29,9.62-6.84,2-1.74,3.87-3.58,5.58-5.49,21.81-24.36,15.75-58.14,14.97-61.92-3-14.71,6.55-29.1,21.26-32.11,14.75-3,29.14,6.55,32.14,21.26,2.16,10.62,10.97,65.79-27.78,109.09-2.52,2.81-5.16,5.49-7.94,8.03,6.2,.19,12.52-1.58,17.88-5.19,6-4.1,13.26-5.58,20.39-4.19,7.16,1.39,13.33,5.45,17.42,11.49,8.42,12.42,5.13,29.4-7.29,37.82Z"/></svg>