<?xml version="1.0" encoding="UTF-8"?><svg xmlns="http://www.w3.org/2000/svg" viewBox="0 0 1080 1080"><defs><style>.c{fill:#c8102e;}</style></defs><g id="a"/><g id="b"><path class="c" d="M1018.12,383.83c-4.1-6.03-10.26-10.1-17.43-11.48-7.13-1.39-14.39,.09-20.39,4.19-5.36,3.61-11.68,5.39-17.88,5.2,2.78-2.55,5.42-5.23,7.94-8.04,38.75-43.3,29.94-98.48,27.78-109.09-3-14.72-17.39-24.27-32.13-21.27-14.72,3-24.27,17.4-21.27,32.11,.78,3.77,6.84,37.56-14.97,61.92-1.71,1.9-3.58,3.74-5.58,5.48-2.97,2.55-6.2,4.84-9.62,6.84,4-10.55,7.33-21.39,9.88-32.39,3.64-15.62,5.87-31.82,6.58-48.18,1.77-38.42-5.23-68.59-7.87-80.08-3.43-14.62-18.11-23.75-32.72-20.36-14.59,3.39-23.75,18.07-20.36,32.68,13.48,58.12,6.64,111.39-20.3,158.4-2.45,4.26-5.1,8.55-7.9,12.75-5.01,7.52-10.62,14.81-16.65,21.62-1.88,2.13-3.81,4.19-5.78,6.26-6.61,6.86-13.82,13.39-21.52,19.46-1.01-2-2.06-3.98-3.13-5.94-20.87-38.15-52.07-69.42-90.23-90.45-35.58-20.58-76.19-31.45-117.44-31.45H321.38c-145.66,0-264.16,118.5-264.16,264.16v27.43c0,99.56,63.09,188.07,155.58,221.46-1.94,23-16.63,44.91-25.06,53.33-16.05,16.04-12.78,32.97-5.1,42.59l.11,.15c3.3,4.07,10.86,10.9,24.5,10.9,4.65,0,18.78,0,64.57-20,25.28-11.04,51.24-24.39,67.78-34.87,17.84-11.32,33.41-24.12,46.45-38.15h144.93c160.77,0,291.56-130.79,291.56-291.56,0-1.2-.01-2.39-.03-3.58,.01-.42,.01-.85,.01-1.27,0-16.66-1.81-33.24-5.39-49.3,.31-.21,.62-.42,.93-.64,2.97,2.46,6.07,4.78,9.3,6.94,25.32,17.13,51.82,20.72,69.59,20.72,8.59,0,15.65-.84,20.11-1.55,14.81-2.36,24.94-16.36,22.55-31.21-1.13-7.19-5-13.48-10.9-17.74-5.91-4.26-13.11-5.97-20.27-4.84-8.13,1.32-28.52,2.9-47.88-8.78,6.71-7.1,12.97-14.58,18.74-22.29,7.49-.13,14.98-.88,22.3-2.23,.74-.13,1.52-.29,2.26-.45,3.65,3.77,7.68,7.23,12.07,10.26,13.84,9.58,30.23,14.65,47.4,14.65,8.52,0,16.87-1.26,24.87-3.68,8.01-2.45,15.62-6.07,22.62-10.81,12.43-8.42,15.72-25.39,7.3-37.82Zm-487.14,383.18h-169.1l-7.8,9.57c-11,13.49-25.24,25.83-42.32,36.67-14.83,9.39-35.24,19.68-54.26,28.22,6.48-18.15,9.8-38.99,5.77-60.56l-2.99-16.03-15.74-4.29c-79.68-21.68-135.32-94.46-135.32-176.99v-27.43c0-116.99,95.17-212.16,212.16-212.16h265.75c32.2,0,63.88,8.5,91.62,24.58l.52,.3c29.58,16.25,53.75,40.45,69.91,69.98,7.69,14.05,13.39,29.06,16.95,44.63,2.91,12.71,4.39,25.87,4.39,39.1v1.72c.01,1.04,.02,2.08,.02,3.13,0,132.09-107.47,239.56-239.56,239.56Z"/></g></svg>