<?xml version="1.0" encoding="UTF-8"?><svg id="a" xmlns="http://www.w3.org/2000/svg" viewBox="0 0 1080 1080"><defs><style>.b{fill:#c8102e;}.c{fill:#c7202f;}</style></defs><path class="c" d="M725.52,379.39c-31.13,31.12-62.23,62.26-93.31,93.4h-.08l93.32-93.4h.07Z"/><path class="b" d="M1000.06,284.52c-20.71-63.36-98.42-81.06-146.33-33.24-42.76,42.69-85.5,85.39-128.21,128.11-31.13,31.12-62.23,62.26-93.31,93.4-41.66,41.71-83.29,83.44-124.9,125.19-4.4,4.42-8.02,10.64-9.6,16.66-9.34,35.48-18.03,71.12-26.8,106.74-6.22,25.2,11.2,42.64,36.31,36.41,34.32-8.54,68.58-17.37,102.96-25.68,9.3-2.25,16.68-6.65,23.41-13.39,21.46-21.5,42.93-43,64.4-64.49,.6-1.02,1.34-1.99,2.22-2.87l54.52-54.57,93.4-93.48,76.11-76.17c.93-.93,1.96-1.71,3.05-2.33,15.88-15.89,31.77-31.76,47.64-47.65,1.86-1.86,3.7-3.73,5.49-5.64,15.64-16.68,23.55-36.51,25.14-59.52-1.78-9.17-2.61-18.66-5.5-27.48Zm-61.66,49.94c-30.09,30.12-60.18,60.24-90.28,90.35h0c-2.04,2.04-4.08,4.08-6.12,6.13-13.86,13.86-27.72,27.73-41.59,41.6h-.01c-10.72,10.73-21.45,21.46-32.17,32.19-2.25,2.25-4.5,4.49-6.75,6.75l-6.75,6.75c-52.24,52.24-104.48,104.47-156.72,156.7-.5,.5-1.04,1.04-1.61,1.53-.19,.17-.38,.33-.58,.48-.23,.19-.47,.37-.72,.52-.08,.07-.18,.13-.28,.18-.48,.3-.97,.52-1.48,.65-10.53,2.76-21.07,5.44-31.86,8.17-2.11,.53-4.21,1.07-6.33,1.6-5.31,1.34-10.67,2.69-16.14,4.07-1.09,.28-2.19,.56-3.29,.84h0c5.01-20.19,9.57-38.83,14.37-57.42,.5-1.94,2.26-3.68,3.76-5.19,52.49-52.53,104.99-105.05,157.49-157.57,14.46-14.47,28.93-28.93,43.39-43.39,16.4-16.42,32.82-32.83,49.23-49.24h.01c.11-.11,.22-.22,.33-.33l.16-.17,.15-.15h.02c23.41-23.44,46.84-46.85,70.26-70.27,6.3-6.29,12.6-12.59,18.9-18.88h0c13.48-13.49,33.06-13.81,45.66-1.1h0c12.56,12.67,12.3,31.85-1.05,45.2Z"/><g><path class="c" d="M893.79,290.35h0c13.48-13.47,33.06-13.79,45.66-1.08h0c-12.6-12.72-32.18-12.4-45.66,1.08Zm30.45,136.79l-76.11,76.17-93.4,93.48-54.52,54.57c-.88,.88-1.62,1.85-2.22,2.87,18.91-18.94,37.82-37.87,56.74-56.8,31.12-31.15,62.26-62.3,93.4-93.45,26.39-26.39,52.78-52.78,79.16-79.17-1.09,.62-2.12,1.4-3.05,2.33Z"/><path class="c" d="M939.45,289.26h0c-12.6-12.7-32.18-12.38-45.66,1.1h0c13.48-13.49,33.06-13.81,45.66-1.1Z"/></g><path class="c" d="M927.29,424.81c-26.38,26.39-52.77,52.78-79.16,79.17-31.14,31.15-62.28,62.3-93.4,93.45-18.92,18.93-37.83,37.86-56.74,56.8,.6-1.02,1.34-1.99,2.22-2.87l54.52-54.57,93.4-93.48,76.11-76.17c.93-.93,1.96-1.71,3.05-2.33Z"/><path class="b" d="M848.13,566.7v372.51c0,25.52-20.48,46.43-45.99,46.73-1.23,.01-2.45,0-3.65-.1-.97,.07-1.96,.1-2.94,.1H282.44c-25.82,0-46.74-20.92-46.74-46.73V427.26s0-.02-.01-.03c-10.1-7.33-19.52-16.16-28.15-26.05-5.05-5.77-9.84-11.91-14.35-18.33-8.81-12.58-16.55-26.23-23.08-40.32,0-.01,0-.02-.02-.02-44.36-14.3-78.68-49.39-90.91-93.8-17.29-62.74,17.76-111.8,24.96-121,6.83-8.72,19.43-10.25,28.15-3.42,8.72,6.83,10.25,19.43,3.42,28.14-3.13,4.01-30.31,40.49-17.87,85.63,5.5,19.96,17.39,37.27,33.48,49.84,.02,.02,.06,0,.05-.03-2.75-12.14-4.49-24.01-5.15-35.23-2.37-40.58,17.6-93.05,47.5-124.75,18.07-19.14,38.37-29.36,58.75-29.58,11.04-.12,20.65,8.89,20.72,19.93,.06,11.13-8.94,20.17-20.06,20.17-9.15,0-19.89,6.04-30.23,17-22.28,23.62-38.37,65.3-36.64,94.89,1.15,19.65,6.41,41.65,14.88,62.95,1.42,3.55,2.91,7.09,4.51,10.59,2.09,4.64,4.34,9.21,6.73,13.68,2.65,4.97,5.42,9.75,8.31,14.31,.01,.02,.03,.02,.05,0,14.72-12.32,31.63-30.98,42.13-57.17,6.42-15.98,9.83-33.03,10.12-50.66,.18-10.97,9.13-19.72,20.04-19.72h.34c11.08,.19,19.9,9.32,19.72,20.38-.38,22.55-4.75,44.4-13,64.94-13.64,34.03-35.55,57.99-54.38,73.6-.01,.01-.01,.04,0,.05,2.38,2.34,4.8,4.53,7.24,6.59,.01,0,.03,0,.04,0,8.04-6.54,18.28-10.46,29.41-10.46h379.78c8.47,0,12.71,10.24,6.73,16.23l-70.8,70.87c-4.04,4.03-9.51,6.3-15.22,6.3h-237.61c-8.93,0-16.17,7.24-16.17,16.18v386.41c0,9.48,7.68,17.16,17.16,17.16h387.94c11.33,0,20.52-9.19,20.52-20.53v-226.33c0-5.46,2.17-10.7,6.03-14.57l71.09-71.15c6.01-6.01,16.28-1.75,16.28,6.74Z"/></svg>