<?xml version="1.0" encoding="UTF-8"?><svg xmlns="http://www.w3.org/2000/svg" viewBox="0 0 1080 1080"><defs><style>.c{fill:#c8102e;}</style></defs><g id="a"/><g id="b"><path class="c" d="M1021.67,282.41c-12.22-7.51-28.47-4.42-36.28,6.92-8.49,12.28-27.76,34.46-61.19,44.64-.05,.01-.09,.03-.15,.05-4.88,1.48-8.98-3.99-6.22-8.3,8.54-13.27,16.64-27.92,23.75-43.95,.77-1.75,2.4-2.98,4.3-3.28,21.14-3.29,40.4-10.39,57.45-21.16,71.13-44.97,67.62-132.26,66.97-142.07-.89-13.58-13.34-24.1-27.81-23.48-14.5,.59-25.53,12.07-24.62,25.67,.16,2.78,3.85,68.41-44.42,98.95-.57,.35-1.13,.71-1.71,1.05-4.14,2.49-9.3-1.02-8.42-5.78,.13-.69,.25-1.4,.38-2.11,8.83-49.89,5.17-102.59-10.63-152.37-4.17-13.08-18.79-20.69-32.7-17.02-13.9,3.68-21.8,17.25-17.66,30.35,13.52,42.6,16.67,87.62,9.14,130.23-3.64,20.55-9.48,39.38-16.66,56.46-1.8,4.3-7.76,4.61-10.06,.56-3.63-6.41-6.71-13.08-9.24-19.96-3.91-10.73-6.42-21.93-7.44-33.29-1.19-13.58-13.92-23.83-28.37-22.91-14.46,.92-25.2,12.64-24,26.2,1.38,15.44,4.81,30.69,10.17,45.29,7.62,20.85,19.02,40.17,33.92,57.55,1.71,1.98,1.76,4.9,.19,7-7.41,9.88-14.91,18.63-22.08,26.23-1.63,1.73-4.18,2.26-6.34,1.29-80.64-36.33-194.17-20.15-302.85,86.22-2.2,2.15-5.68,2.15-7.88,0-105.16-102.93-214.75-121.71-294.81-90.27-2.41,.94-5.16,.11-6.62-2.01-9.38-13.59-17.92-27.61-25.66-42.02-1.31-2.44-.63-5.47,1.6-7.11,16.83-12.32,37.45-32.35,51.18-62.67,20.76-45.9,13.83-87.91,7.86-108.87-3.85-13.51-17.92-21.36-31.47-17.51-13.51,3.86-21.36,17.94-17.48,31.47,3.25,11.47,9.29,41.66-5.3,73.94-6.48,14.32-15.24,25.24-23.83,33.39-2.92,2.78-7.75,1.62-9.13-2.18-4.01-11.14-7.57-22.48-10.67-33.96-12.17-44.69-17.18-91-14.92-137.64,.67-14.04-10.23-25.97-24.23-26.65-14.04-.65-25.97,10.19-26.65,24.22-1.64,34.21,.24,68.29,5.55,101.8,.52,3.3-2.78,5.89-5.86,4.6l-.07-.02c-20.28-8.35-32.62-36.96-29.99-69.57,1.13-14.01-9.31-26.3-23.31-27.43l-.23-.02c-13.93-1-26.07,9.4-27.2,23.35-4.47,55.25,20.17,103.76,61.32,120.75,8.28,3.41,17.24,5.46,26.52,6.13,2.46,.17,4.93,.26,7.42,.25,2.52-.02,4.72,1.6,5.44,4.02,9,30.49,20.83,59.84,35.4,87.84,2.12,4.07-1.26,8.82-5.8,8.14-12.76-1.93-26.66-6.84-38.78-17.5-20.36-17.91-24.98-42.17-26-51.76-1.5-13.98-14.08-24.08-28.05-22.56-13.97,1.5-24.08,14.05-22.56,28.05,1.67,15.48,9.23,54.73,42.93,84.46,24.69,21.74,52.42,29.35,75.78,31.02,4.39,.32,8.64,.43,12.68,.38,4.98-.06,7.6,5.89,4.13,9.47-75.81,78.08-82.9,223.58,54.33,360.82l284.07,284.09c14.56,14.56,38.16,14.56,52.71,0l284.07-284.09c130.39-130.39,129.98-268.44,64.16-348.75-2.88-3.5-.68-8.81,3.84-9.15,12.84-.99,25.48-3.32,37.6-7.02,48.58-14.79,76.28-46.64,88.46-64.31,7.82-11.32,4.27-26.6-7.98-34.08Zm-152.65,255.99c-5.22,51.09-34.72,104.82-85.33,155.43l-254.56,254.57c-2.18,2.18-5.74,2.18-7.92,0l-254.56-254.58c-57.66-57.65-88.37-120.44-86.48-176.79,1.18-35.03,15.2-66.02,39.5-87.24l13.16-11.49c.46-.39,.97-.71,1.51-.94l16.4-6.87c64.33-26.97,147.52,1.71,222.53,76.72l47.94,47.94c2.18,2.18,5.74,2.18,7.92,0l47.94-47.94c42.44-42.45,88.01-70.52,131.79-81.22,22.71-5.54,44.7-6.38,64.91-2.61,.2,.03,.41,.09,.6,.15l23.94,7.02c.39,.11,.76,.27,1.12,.46l26.91,14.7c.52,.28,1,.66,1.41,1.1l10.66,11.47c23.72,25.54,34.57,61.09,30.59,100.12Z"/></g></svg>