<?xml version="1.0" encoding="UTF-8"?><svg id="a" xmlns="http://www.w3.org/2000/svg" viewBox="0 0 1080 1080"><defs><style>.b{fill:#d2d1d1;}</style></defs><path class="b" d="M1005.85,585.5c-7.65,21.22-27.76,35.37-50.31,35.37h-44.25c-.06,0-.1,.05-.1,.1v334c0,28.16-21.38,52.19-49.45,54.35-3.64,.28-7.16,.17-10.62-.26,0,0-.01,0-.02,0-2.16,.27-4.35,.41-6.59,.41h-184.95c-29.58,0-53.56-23.98-53.56-53.56v-79.07c0-28.95-23.47-52.42-52.42-52.42h-52.27c-26.21,0-47.46,21.25-47.46,47.46v84.03c0,29.58-23.98,53.56-53.56,53.56H196.92c-29.58,0-53.56-23.98-53.56-53.56v-334.94c0-.06-.05-.1-.1-.1h-38.96c-22.56,0-42.66-14.15-50.31-35.37-7.63-21.22-1.11-44.95,16.26-59.3l166.78-137.76c.08-.07,.02-.2-.08-.18-9.77,1.81-20.72,3.03-32.47,3.03s-23.46-1.13-36-4.01c-59.24-13.51-105.64-61.21-118.23-121.52-4.07-19.45,8.41-38.53,27.88-42.58,19.45-4.05,38.51,8.43,42.56,27.88,6.97,33.35,31.42,58.68,63.8,66.06,2.43,.56,4.86,1,7.25,1.33,.09,.01,.15-.09,.1-.16-8.4-11.74-16.02-23.89-22.81-36.34-29.83-54.71-44.1-115.95-41.31-177.1,.9-19.84,17.81-35.24,37.59-34.3,19.86,.9,35.2,17.74,34.3,37.59-1.01,22.28,.59,52.47,10.56,86.26,.03,.09,.15,.1,.2,.02,6.3-11.24,7.05-21.52,6.52-28.24-1.52-19.8,13.32-37.09,33.12-38.61,19.84-1.52,37.11,13.3,38.63,33.12,1.3,17.07-.49,43.18-16.53,70.73-8.35,14.36-18.6,25.69-28.78,34.51-.04,.03-.05,.09-.02,.13,16.04,24.7,36.29,47.58,59.84,67.62,.04,.03,.09,.03,.13,0l192.59-159.09c19.76-16.35,48.34-16.35,68.1,0l186.79,154.32s.1,.03,.13,0c2.78-2.4,5.48-4.88,8.12-7.4,.05-.05,.04-.12-.01-.16-17.66-11.19-37.89-28.89-49.92-55.38-11.27-24.78-13.08-52.97-5.1-79.39,5.76-19.04,25.85-29.79,44.87-24.04,19.02,5.74,29.77,25.83,24.04,44.84-2.08,6.87-3.45,17.44,1.71,28.81,6.25,13.73,19.29,22.77,28.74,27.81,.05,.03,.11,0,.14-.04,2.98-5.42,5.72-10.96,8.2-16.58,22.76-51.38,20.97-99.48,15.48-130.77-3.43-19.57,9.64-38.22,29.22-41.66,19.6-3.45,38.22,9.64,41.66,29.22,5.92,33.58,8.51,81.92-7.09,135.52-.02,.07,.04,.15,.12,.13,10.67-1.9,22.14-5.72,32.9-12.82,37.92-25.04,34.58-70.63,34.42-72.54-1.87-19.8,12.67-37.3,32.45-39.17,19.78-1.89,37.34,12.71,39.21,32.49,3.15,33.35-7.28,100.24-66.43,139.28-31.93,21.08-65.82,26.3-91.54,26.3-4.91,0-9.54-.18-13.8-.51-.04,0-.07,.02-.09,.05-14.1,22.67-31.35,43.68-51.18,62.31-.05,.04-.04,.11,0,.15l182.6,150.83c17.37,14.35,23.89,38.08,16.26,59.3Z"/></svg>