<?xml version="1.0" encoding="UTF-8"?><svg id="a" xmlns="http://www.w3.org/2000/svg" viewBox="0 0 1080 1080"><defs><style>.b{fill:#c7202f;}</style></defs><path class="b" d="M1005.85,585.5c-7.65,21.22-27.76,35.37-50.31,35.37h-44.35v335.15c0,29.53-23.93,53.46-53.46,53.46-2.24,0-4.44-.14-6.62-.41-2.16,.27-4.36,.41-6.6,.41h-185.05c-29.53,0-53.46-23.93-53.46-53.46v-131.59h-152.15v131.59c0,29.53-23.93,53.46-53.46,53.46H196.82c-29.53,0-53.46-23.93-53.46-53.46v-335.15h-39.07c-22.56,0-42.66-14.15-50.31-35.37-7.63-21.22-1.11-44.95,16.26-59.3l167.08-138.01c-9.87,1.85-20.95,3.1-32.86,3.1s-23.46-1.13-36-4.01c-59.24-13.51-105.64-61.21-118.23-121.52-4.07-19.45,8.41-38.53,27.88-42.58,19.45-4.05,38.51,8.43,42.56,27.88,6.97,33.35,31.42,58.68,63.8,66.06,2.51,.58,5.02,1.03,7.48,1.36-8.45-11.8-16.12-24.02-22.95-36.54-29.83-54.71-44.1-115.95-41.31-177.1,.9-19.84,17.81-35.24,37.59-34.3,19.86,.9,35.2,17.74,34.3,37.59-1.01,22.33,.6,52.62,10.63,86.5,6.42-11.33,7.18-21.69,6.64-28.46-1.52-19.8,13.32-37.09,33.12-38.61,19.84-1.52,37.11,13.3,38.63,33.12,1.3,17.07-.49,43.18-16.53,70.73-8.37,14.39-18.65,25.74-28.85,34.56,16.06,24.76,36.35,47.68,59.96,67.75l192.66-159.15c19.76-16.35,48.34-16.35,68.1,0l186.86,154.37c2.84-2.45,5.59-4.98,8.29-7.55-17.68-11.19-37.98-28.91-50.03-55.45-11.27-24.78-13.08-52.97-5.1-79.39,5.76-19.04,25.85-29.79,44.87-24.04,19.02,5.74,29.77,25.83,24.04,44.84-2.08,6.87-3.45,17.44,1.71,28.81,6.27,13.78,19.37,22.82,28.83,27.86,3-5.45,5.76-11.02,8.25-16.68,22.76-51.38,20.97-99.48,15.48-130.77-3.43-19.57,9.64-38.22,29.22-41.66,19.6-3.45,38.22,9.64,41.66,29.22,5.92,33.62,8.51,82.02-7.13,135.68,10.71-1.89,22.25-5.72,33.06-12.85,37.92-25.04,34.58-70.63,34.42-72.54-1.87-19.8,12.67-37.3,32.45-39.17,19.78-1.89,37.34,12.71,39.21,32.49,3.15,33.35-7.28,100.24-66.43,139.28-31.93,21.08-65.82,26.3-91.54,26.3-4.93,0-9.58-.19-13.86-.51-14.13,22.72-31.42,43.78-51.3,62.44l182.69,150.9c17.37,14.35,23.89,38.08,16.26,59.3Z"/></svg>