<?xml version="1.0" encoding="UTF-8"?><svg xmlns="http://www.w3.org/2000/svg" viewBox="0 0 1080 1080"><defs><style>.c{fill:#c8102e;}</style></defs><g id="a"/><g id="b"><path class="c" d="M1011.01,893.83l-233.3-186.64c17.13-23.77,31.51-49.38,43.02-76.59,20.59-48.67,31.02-100.33,31.02-153.56s-10.43-104.9-31.02-153.57c-.43-1.02-.87-2.04-1.32-3.06,14.2,5.72,29.14,8.53,43.94,8.53,25.75,0,51.08-8.5,71.28-24.99,18.4-15.02,31.32-35.79,37.33-60.06,4.45-17.92,3.85-32.53,3.57-36.59-.89-12.39-11.65-21.74-24.04-20.84-12.4,.88-21.73,11.64-20.85,24.04,.1,1.49,2.29,36.75-24.47,58.59-15.25,12.45-35.53,17.25-55.2,13.8,8.04-13.5,13.96-29.01,16.18-46.67,.74-5.89,1.04-11.98,.92-18.2,2.14-.2,4.28-.72,6.37-1.56,10.97-4.47,37.93-18.39,51.19-51.23,14.32-35.46,1.58-66.72-2.67-75.46-5.43-11.17-18.9-15.83-30.07-10.39-11.18,5.43-15.83,18.9-10.4,30.07,1.56,3.22,8.98,20.2,1.42,38.93-5.74,14.21-16.82,21.63-23.08,24.84-6.98-23.3-18.67-45.58-33.73-62.66-19.31-21.88-42.13-33.45-66.02-33.45-12.42,0-22.5,10.08-22.5,22.5s10.08,22.5,22.5,22.5c13.39,0,24.94,9.91,32.27,18.22,20.21,22.91,32.74,61.72,29.15,90.28-2.41,19.15-12.34,34.97-24.47,47.53-16.99-29.1-37.67-55.9-61.82-80.04-36.21-36.22-78.39-64.65-125.37-84.52-48.67-20.59-100.33-31.02-153.56-31.02s-104.9,10.43-153.57,31.02c-46.98,19.87-89.16,48.3-125.37,84.52-36.22,36.21-64.65,78.39-84.52,125.37-20.59,48.67-31.02,100.33-31.02,153.57s10.43,104.89,31.02,153.56c19.87,46.98,48.3,89.16,84.52,125.37,36.21,36.22,78.39,64.65,125.37,84.52,48.67,20.59,100.33,31.02,153.57,31.02s104.89-10.43,153.56-31.02c24.47-10.35,47.62-23.02,69.32-37.9l246.24,197c13.09,10.47,42.72-4.73,66.04-33.89,23.33-29.16,31.66-61.4,18.57-71.87Zm-553.73-127.16c-159.71,0-289.64-129.93-289.64-289.63S297.57,187.4,457.28,187.4s289.63,129.93,289.63,289.64-129.93,289.63-289.63,289.63Z"/></g></svg>