<?xml version="1.0" encoding="UTF-8"?><svg id="a" xmlns="http://www.w3.org/2000/svg" viewBox="0 0 1080 1080"><defs><style>.b{fill:#de1738;}</style></defs><path class="b" d="M951.59,370.09H207.42c-26.36,0-47.72-21.37-47.72-47.72s21.37-47.72,47.72-47.72H951.59c26.36,0,47.72,21.37,47.72,47.72s-21.37,47.72-47.72,47.72Z"/><path class="b" d="M951.59,836H207.42c-26.36,0-47.72-21.37-47.72-47.72s21.37-47.72,47.72-47.72H951.59c26.36,0,47.72,21.37,47.72,47.72s-21.37,47.72-47.72,47.72Z"/><path class="b" d="M951.59,603.05H207.42c-26.36,0-47.72-21.37-47.72-47.72s21.37-47.72,47.72-47.72H951.59c26.36,0,47.72,21.37,47.72,47.72s-21.37,47.72-47.72,47.72Z"/></svg>