<?xml version="1.0" encoding="UTF-8"?><svg id="a" xmlns="http://www.w3.org/2000/svg" viewBox="0 0 1080 1080"><defs><style>.b{fill:#d2d1d1;}</style></defs><path class="b" d="M1058.92,439.07c-5.79-10.99-19.39-15.21-30.39-9.42-2.68,1.41-4.43,2.97-6.45,4.77-18.49,16.47-34.08,22.23-46.36,17.12-3.49-1.45-6.81-2.83-9.58-20.68,12.5-6.12,24.76-15.2,36.69-27.2,27.81-27.99,43.52-83.8,38.99-115-2.79-19.16-12.28-28.04-19.75-32.11-10.92-5.95-24.57-1.93-30.52,8.98-5.27,9.66-2.72,21.48,5.51,28.2,1,4.5,1.19,16.76-3.77,34.49-5.11,18.2-13.67,34.96-22.39,43.72-21.7,21.83-38.84,26.5-55.73,21.71,9.52-13.69,17.56-28.34,24.11-43.9,15.8-37.64,10.94-86.23-12.1-120.9-16.28-24.5-39.14-37.99-64.4-37.99-12.43,0-22.5,10.07-22.5,22.5s10.07,22.5,22.5,22.5,21.51,9.73,26.92,17.9c14.6,21.94,17.98,54.99,8.09,78.57-15.26,36.35-39.52,62.72-63.86,81.48-53.74-109.32-166.22-184.56-296.27-184.56s-237.4,71.87-292.51,177.18c-21.15-18.11-41.4-42.28-54.76-74.1-9.92-23.59-6.51-56.63,8.06-78.57,5.44-8.17,14.51-17.9,26.94-17.9s22.5-10.07,22.5-22.5-10.07-22.5-22.5-22.5c-25.25,0-48.12,13.49-64.42,37.99-23.03,34.67-27.89,83.25-12.08,120.9,6.88,16.38,15.43,31.75,25.62,46.06-3.99,2.28-8.12,4.4-12.26,6.17-4.11,1.75-8.25,3.16-12.37,4.03-6.05,1.28-13.41,1.92-21.9-1.32-5.78-2.22-12.09-6.23-18.9-13.07-8.69-8.76-17.27-25.51-22.38-43.72-4.95-17.72-4.76-29.98-3.75-34.49,8.22-6.71,10.77-18.53,5.5-28.2-5.94-10.9-19.62-14.92-30.53-8.97-7.46,4.07-16.95,12.95-19.73,32.11-4.55,31.2,11.16,87.01,38.98,115,12.17,12.25,25.6,20.64,39.84,25.03-4.62,13.36-10.12,21.24-12.89,22.91-12.25,5-27.79-.78-46.21-17.19-2.02-1.8-3.77-3.35-6.44-4.76-11-5.79-24.6-1.58-30.39,9.41-5.21,9.9-2.32,21.91,6.31,28.44,.18,.15,.38,.32,.58,.52,25.97,23.12,48.74,30.38,67.11,30.38,10.27,0,19.18-2.27,26.48-5.31,21.67-9.01,35.17-36.09,42.1-63.8,15.25-3.99,29.04-11.35,40.72-18.58,6.9,6.66,14.25,12.98,22.06,19-12.12,34.34-18.72,71.3-18.72,109.79,0,182.23,147.73,329.95,329.94,329.95s329.96-147.72,329.96-329.95c0-35.69-5.68-70.06-16.16-102.25,11.98-8.39,23.01-17.49,33.08-27.25,12.76,6.28,25.14,9.75,37.48,10.47,3.95,23.55,12.27,42.89,36.42,52.93,7.31,3.04,16.2,5.31,26.46,5.31,18.38,0,41.16-7.26,67.12-30.38,.21-.19,.4-.37,.58-.52,8.65-6.53,11.54-18.54,6.32-28.43Zm-360.86,148.58c-6.99,6.33-15.76,9.45-24.5,9.45-9.96,0-19.86-4.04-27.06-11.99l-74.37-82.07,2.03,206.94c.21,20.16-15.98,36.66-36.13,36.86h-.37c-20,0-36.29-16.1-36.49-36.14l-2.05-208.34-70.28,77.55c-13.53,14.94-36.62,16.08-51.56,2.54-14.94-13.53-16.07-36.62-2.53-51.55l133.52-147.36c6.91-7.64,16.74-11.99,27.05-11.99s20.12,4.35,27.05,11.99l138.22,152.55c13.54,14.94,12.39,38.02-2.53,51.56Z"/></svg>