<?xml version="1.0" encoding="UTF-8"?><svg id="a" xmlns="http://www.w3.org/2000/svg" viewBox="0 0 1080 1080"><defs><style>.b{fill:#c8102e;}</style></defs><path class="b" d="M1058.92,439.07c-5.8-10.99-19.4-15.21-30.4-9.42-2.67,1.41-4.42,2.97-6.44,4.77-18.49,16.47-34.09,22.23-46.36,17.12-3.49-1.45-6.81-2.83-9.58-20.68,12.5-6.12,24.76-15.2,36.68-27.2,27.82-27.99,43.53-83.8,38.99-115-2.79-19.16-12.28-28.04-19.75-32.11-10.91-5.95-24.57-1.93-30.52,8.98-5.27,9.66-2.72,21.48,5.51,28.2,1,4.5,1.19,16.76-3.77,34.49-5.1,18.2-13.67,34.96-22.38,43.72-21.7,21.83-38.85,26.5-55.73,21.71,9.52-13.69,17.56-28.34,24.1-43.9,15.81-37.64,10.95-86.23-12.09-120.9-16.28-24.5-39.15-37.99-64.41-37.99-12.42,0-22.5,10.07-22.5,22.5s10.08,22.5,22.5,22.5,21.51,9.73,26.93,17.9c14.59,21.94,17.98,54.99,8.08,78.57-15.26,36.35-39.52,62.72-63.85,81.48-53.74-109.32-166.22-184.56-296.27-184.56s-237.41,71.87-292.51,177.18c-21.16-18.11-41.41-42.28-54.77-74.1-9.91-23.59-6.51-56.63,8.07-78.57,5.43-8.17,14.51-17.9,26.93-17.9s22.5-10.07,22.5-22.5-10.07-22.5-22.5-22.5c-25.25,0-48.12,13.49-64.41,37.99-23.04,34.67-27.89,83.25-12.08,120.9,6.88,16.38,15.42,31.75,25.61,46.06-3.99,2.28-8.11,4.4-12.26,6.17-4.11,1.75-8.25,3.16-12.37,4.03-6.05,1.28-13.4,1.92-21.89-1.32-5.78-2.22-12.1-6.23-18.9-13.07-8.7-8.76-17.28-25.51-22.38-43.72-4.96-17.72-4.77-29.98-3.76-34.49,8.23-6.71,10.78-18.53,5.51-28.2-5.95-10.9-19.62-14.92-30.53-8.97-7.46,4.07-16.95,12.95-19.74,32.11-4.54,31.2,11.17,87.01,38.99,115,12.17,12.25,25.59,20.64,39.83,25.03-4.61,13.36-10.11,21.24-12.89,22.91-12.25,5-27.79-.78-46.2-17.19-2.02-1.8-3.77-3.35-6.44-4.76-11-5.79-24.61-1.58-30.4,9.41-5.21,9.9-2.32,21.91,6.32,28.44,.17,.15,.37,.32,.58,.52,25.96,23.12,48.74,30.38,67.11,30.38,10.27,0,19.17-2.27,26.47-5.31,21.68-9.01,35.18-36.09,42.11-63.8,15.25-3.99,29.04-11.35,40.71-18.58,6.91,6.66,14.25,12.98,22.06,19-12.12,34.34-18.71,71.3-18.71,109.79,0,182.23,147.72,329.95,329.94,329.95s329.95-147.72,329.95-329.95c0-35.69-5.67-70.06-16.15-102.25,11.98-8.39,23.01-17.49,33.07-27.25,12.76,6.28,25.15,9.75,37.48,10.47,3.96,23.55,12.27,42.89,36.43,52.93,7.3,3.04,16.19,5.31,26.46,5.31,18.37,0,41.15-7.26,67.11-30.38,.22-.19,.41-.37,.59-.52,8.64-6.53,11.53-18.54,6.32-28.43Zm-360.87,148.58c-6.99,6.33-15.76,9.45-24.5,9.45-9.95,0-19.85-4.04-27.06-11.99l-74.37-82.07,2.04,206.94c.2,20.16-15.98,36.66-36.14,36.86h-.36c-20,0-36.3-16.1-36.49-36.14l-2.06-208.34-70.27,77.55c-13.54,14.94-36.62,16.08-51.56,2.54-14.94-13.53-16.07-36.62-2.54-51.55l133.52-147.36c6.92-7.64,16.74-11.99,27.05-11.99s20.13,4.35,27.05,11.99l138.23,152.55c13.53,14.94,12.39,38.02-2.54,51.56Z"/></svg>