<?xml version="1.0" encoding="UTF-8"?><svg id="a" xmlns="http://www.w3.org/2000/svg" viewBox="0 0 1080 1080"><defs><style>.b{fill:#d2d1d1;}</style></defs><path class="b" d="M886.91,593.34v373.76c0,.99-.02,1.98-.08,2.95-1.53,31.94-27.93,57.37-60.24,57.37-1.11,0-2.22-.04-3.32-.1l-601.4,4.05h-.42c-33.12,0-60.1-26.73-60.31-59.9,0-.73,0-1.44,.03-2.15-.01-.73-.03-1.49-.03-2.22v-373.76c0-33.3,27.01-60.32,60.31-60.32s60.32,27.02,60.32,60.32v149.01c14.63-4.45,30.25-6.86,46.47-6.86,37.44,0,71.67,12.81,97.89,33.93,26.22-21.12,60.45-33.93,97.89-33.93s71.67,12.81,97.89,33.93c26.22-21.12,60.45-33.93,97.89-33.93,16.22,0,31.84,2.41,46.47,6.86v-149.01c0-33.3,27.02-60.32,60.32-60.32s60.32,27.02,60.32,60.32Z"/><path class="b" d="M965.49,200.4c-21.33,16.41-44.33,22.76-62.25,24.95-4.45,11.26-9.85,22.69-16.41,34.14-5.78,10.06-12.24,19.77-19.38,29.09,6.78,3.91,12.87,6.19,16.67,7.37,12.06,3.82,18.65,16.18,14.67,27.65-3.24,9.35-12.5,15.21-22.35,14.99-2.23-.06-4.48-.42-6.7-1.11-7.12-2.25-19.36-6.9-32.47-15.5-1.86,1.76-3.74,3.48-5.66,5.18l103.21,64.35c9.97,6.21,15.59,14.59,16.3,23.31v.62c.04,.55,.04,1.11,.04,1.66,.02,.26,.02,.51,.02,.79,0,57.49-74.6,104.26-166.3,104.26-50.31,0-95.47-14.08-125.97-36.29-30.51,22.21-75.68,36.29-125.99,36.29s-95.48-14.08-125.99-36.29c-30.5,22.21-75.66,36.29-125.97,36.29-91.7,0-166.3-46.77-166.3-104.26,0-.28,0-.53,.02-.79,0-.55,0-1.11,.04-1.66v-.62c.71-8.72,6.33-17.1,16.3-23.31l81.06-50.55c-17.48-.77-34.65-5-50.23-12.42-35.97-17.1-54.29-46.11-61.98-61.88-4.96-10.12-.77-22.32,9.35-27.27,10.11-4.94,22.33-.75,27.26,9.38,5.37,10.97,18.09,31.18,42.85,42.95,3.58,1.7,7.12,3.09,10.58,4.19-7.52-15.13-14.46-32.31-19.7-51.37-16.89-4.79-31.84-12.82-44.49-23.91-50.49-44.22-39.52-115.71-38.11-123.72,1.96-11.09,12.54-18.49,23.63-16.51,11.1,1.95,18.49,12.53,16.51,23.61-.39,2.27-9.43,55.94,24.82,85.96,2.79,2.44,5.76,4.65,8.94,6.63-.34-3.72-.61-7.46-.79-11.27-2.08-41.99,5.72-84.98,22.58-124.35,4.43-10.35,16.42-15.13,26.76-10.7,10.34,4.43,15.15,16.39,10.72,26.76-14.44,33.69-21.12,70.44-19.34,106.29,1.03,20.63,4.7,39.57,9.89,56.64,5.63-6.92,10.4-14.46,14.25-22.51,4.04-8.44,7.04-17.4,8.88-26.66,2.22-11.03,12.98-18.19,24.01-15.97,11.04,2.21,18.2,12.95,15.98,23.98-2.53,12.58-6.6,24.78-12.1,36.25-8.35,17.45-19.82,33.03-34.1,46.38,7.3,14.12,15.15,26.04,22.25,35.57l3.13-1.95,23.98-14.97c9.6-6,22.25-9.32,35.4-9.32h439.82c13.15,0,25.8,3.32,35.39,9.32l3.58,2.23c4.49-3.68,8.84-7.47,13.04-11.43-2.28-3.22-4.43-6.66-6.47-10.3-11.61-20.95-16.24-45.59-13.05-69.46,1.6-11.98,13.13-20.42,25.75-18.86,12.61,1.54,21.53,12.5,19.93,24.48-1.03,7.73-1.52,22.23,5.24,37.73,3.62-5.18,7-10.52,10.13-15.98,4.78-8.34,8.85-16.67,12.26-24.91,3.99-9.61,7.12-19.13,9.53-28.38,.39-1.45,.75-2.91,1.09-4.35-2.18-.14-4.34-.44-6.47-.87-15.07-3.01-28.32-12.72-37.32-27.33-10.14-16.46-13.25-35.94-14.08-49.4-.75-12.05,8.94-22.37,21.64-23.04,12.67-.67,23.57,8.54,24.32,20.61,.73,12.06,3.6,22.92,7.83,29.78,2.71,4.37,5.38,6.29,7,6.6,.81,.16,1.88,0,3.07-.43,.81-21.16-1.41-39.22-3.84-52.07-2.27-11.89,6.03-23.24,18.57-25.35,12.52-2.12,24.48,5.81,26.74,17.69,4.27,22.53,7.93,58.58,.27,100.17,6.45-2.43,13.1-5.91,19.48-10.82,28.8-22.17,28.86-56.64,28.78-60.49-.28-12.09,9.81-22.05,22.52-22.27,12.76-.28,23.24,9.35,23.5,21.44,.23,9.85-.93,60.83-45.77,95.32Z"/></svg>