<?xml version="1.0" encoding="UTF-8"?><svg id="a" xmlns="http://www.w3.org/2000/svg" viewBox="0 0 1080 1080"><defs><style>.b{fill:#de1738;}</style></defs><path class="b" d="M878.45,593.34v373.76c0,.99-.02,1.98-.08,2.95-1.52,31.94-27.92,57.37-60.24,57.37-1.11,0-2.21-.04-3.32-.1l-601.4,4.05h-.42c-33.12,0-60.1-26.74-60.32-59.9,0-.73,0-1.44,.04-2.16-.02-.73-.04-1.48-.04-2.21v-373.76c0-33.3,27.01-60.32,60.32-60.32s60.32,27.01,60.32,60.32v149.01c14.63-4.45,30.26-6.86,46.47-6.86,37.44,0,71.67,12.81,97.89,33.94,26.22-21.12,60.45-33.94,97.89-33.94s71.67,12.81,97.89,33.94c26.22-21.12,60.45-33.94,97.89-33.94,16.22,0,31.84,2.41,46.47,6.86v-149.01c0-33.3,27.01-60.32,60.32-60.32s60.32,27.01,60.32,60.32Z"/><path class="b" d="M957.03,200.4c-21.34,16.41-44.34,22.76-62.25,24.96-4.45,11.25-9.85,22.68-16.41,34.13-5.77,10.07-12.24,19.78-19.38,29.09,6.78,3.92,12.87,6.19,16.67,7.38,12.06,3.82,18.65,16.18,14.67,27.65-3.24,9.35-12.5,15.21-22.35,14.99-2.23-.06-4.49-.42-6.7-1.11-7.12-2.25-19.36-6.9-32.47-15.5-1.86,1.76-3.74,3.48-5.66,5.18l103.21,64.35c9.97,6.21,15.58,14.59,16.3,23.32v.61c.04,.55,.04,1.11,.04,1.66,.02,.26,.02,.51,.02,.79,0,57.49-74.59,104.26-166.29,104.26-50.31,0-95.48-14.08-125.97-36.29-30.51,22.21-75.68,36.29-125.99,36.29s-95.48-14.08-125.99-36.29c-30.49,22.21-75.66,36.29-125.97,36.29-91.7,0-166.29-46.77-166.29-104.26,0-.28,0-.53,.02-.79,0-.55,0-1.11,.04-1.66v-.61c.71-8.72,6.33-17.11,16.3-23.32l81.06-50.55c-17.48-.77-34.65-5-50.23-12.42-35.97-17.11-54.28-46.12-61.98-61.88-4.96-10.13-.77-22.33,9.35-27.27,10.11-4.94,22.33-.75,27.25,9.37,5.38,10.98,18.09,31.19,42.85,42.95,3.58,1.7,7.12,3.09,10.58,4.19-7.51-15.13-14.46-32.31-19.7-51.38-16.89-4.79-31.84-12.81-44.5-23.91-50.49-44.22-39.51-115.71-38.11-123.72,1.96-11.09,12.54-18.49,23.63-16.51,11.09,1.96,18.49,12.54,16.51,23.61-.4,2.27-9.43,55.95,24.82,85.97,2.79,2.43,5.75,4.65,8.94,6.62-.34-3.72-.61-7.46-.79-11.27-2.08-41.98,5.72-84.98,22.58-124.35,4.43-10.34,16.41-15.13,26.76-10.7,10.34,4.43,15.15,16.39,10.72,26.76-14.44,33.7-21.12,70.44-19.34,106.29,1.03,20.63,4.71,39.57,9.89,56.64,5.64-6.92,10.4-14.46,14.26-22.51,4.03-8.44,7.04-17.4,8.88-26.66,2.21-11.03,12.97-18.19,24.01-15.98,11.03,2.21,18.19,12.95,15.98,23.99-2.53,12.58-6.61,24.78-12.1,36.25-8.35,17.44-19.82,33.03-34.09,46.37,7.3,14.12,15.15,26.04,22.25,35.58l3.12-1.96,23.99-14.97c9.59-5.99,22.25-9.31,35.4-9.31h439.81c13.15,0,25.81,3.32,35.4,9.31l3.58,2.23c4.49-3.68,8.84-7.48,13.03-11.43-2.27-3.22-4.43-6.66-6.47-10.3-11.61-20.94-16.24-45.58-13.05-69.45,1.6-11.98,13.13-20.43,25.75-18.87,12.62,1.54,21.54,12.5,19.93,24.48-1.03,7.73-1.52,22.23,5.24,37.73,3.62-5.18,7-10.52,10.13-15.98,4.79-8.35,8.86-16.67,12.26-24.92,3.99-9.61,7.12-19.12,9.53-28.38,.4-1.44,.75-2.91,1.09-4.35-2.18-.14-4.33-.44-6.47-.87-15.07-3.01-28.32-12.72-37.32-27.33-10.14-16.45-13.25-35.93-14.08-49.4-.75-12.04,8.94-22.37,21.63-23.04,12.68-.67,23.57,8.54,24.32,20.61,.73,12.06,3.6,22.92,7.83,29.78,2.71,4.37,5.38,6.29,7,6.61,.81,.16,1.88,0,3.07-.44,.81-21.16-1.4-39.22-3.84-52.07-2.27-11.89,6.03-23.24,18.57-25.35,12.52-2.12,24.48,5.81,26.74,17.7,4.27,22.52,7.93,58.58,.28,100.16,6.45-2.43,13.09-5.91,19.48-10.82,28.79-22.17,28.85-56.64,28.77-60.49-.28-12.08,9.81-22.05,22.52-22.27,12.76-.28,23.24,9.35,23.49,21.44,.24,9.85-.93,60.83-45.76,95.32Z"/></svg>