<?xml version="1.0" encoding="UTF-8"?><svg id="a" xmlns="http://www.w3.org/2000/svg" viewBox="0 0 1080 1080"><defs><style>.b{fill:#c8102e;}</style></defs><path class="b" d="M866.49,328.38c-.28-49.37-34.04-90.89-79.57-103.11-9.03-2.43-18.55-3.69-28.36-3.64l-99.51,.54-.06-11.19c-.22-42.58-35.06-77.05-77.63-76.81l-84.98,.45c-42.58,.23-77.04,35.08-76.82,77.66l.06,11.19-99.49,.54c-28.67,.14-55.56,11.44-75.72,31.83-20.17,20.39-31.19,47.4-31.01,76.06l.13,26.07c.03,7.31,2.97,14.29,8.17,19.43,3.42,3.38,7.64,5.79,12.22,7.02,2.36,.64,4.8,.95,7.28,.95h1.88l56.65,460.1c6.78,57.22,55.35,100.37,112.99,100.37h255.95c57.62,0,106.19-43.15,112.96-100.25l57.08-463.46h.52c15.19-.08,27.45-12.47,27.37-27.68l-.11-26.07ZM496.69,189.69l84.96-.45c2.01-.03,3.98,.24,5.87,.75,9.4,2.52,16.36,11.09,16.42,21.31l.06,11.17-129.29,.7-.07-11.19c-.07-12.22,9.82-22.22,22.05-22.29Zm230.28,649.29c-3.51,29.53-28.58,51.8-58.3,51.8h-255.95c-29.74,0-54.8-22.27-58.32-51.91l-55.89-453.81,316.46-1.72h168.11l-56.11,455.64Zm-112.24-510.7l-346.27,1.87c.01-.62,.04-1.25,.08-1.87,.72-12.72,5.99-24.59,15.02-33.71,9.81-9.94,22.9-15.44,36.86-15.51l127.05-.69,311.39-1.67c28.35-.15,51.58,22.37,52.53,50.51l-196.66,1.07Z"/><path class="b" d="M702.38,456.78l-28.23,357.05c-.84,10.81-9.89,19.02-20.55,19.02-.55,0-1.1-.02-1.66-.07-11.36-.9-19.85-10.84-18.94-22.21l28.22-357.04c.89-11.37,10.81-19.84,22.21-18.96,11.36,.9,19.85,10.84,18.95,22.21Z"/><path class="b" d="M429.44,832.78c-.56,.05-1.11,.07-1.66,.07-10.66,0-19.71-8.21-20.55-19.02l-28.23-357.05c-.9-11.37,7.59-21.31,18.95-22.21,11.35-.88,21.32,7.59,22.21,18.96l28.22,357.04c.91,11.37-7.58,21.31-18.94,22.21Z"/><path class="b" d="M561.34,455.15v357.04c0,11.41-9.24,20.66-20.65,20.66s-20.65-9.25-20.65-20.66V455.15c0-11.39,9.24-20.65,20.65-20.65s20.65,9.26,20.65,20.65Z"/></svg>