<?xml version="1.0" encoding="UTF-8"?><svg id="a" xmlns="http://www.w3.org/2000/svg" viewBox="0 0 1080 1080"><defs><style>.b{fill:#c8102e;}.c{fill:#c7202f;}</style></defs><path class="c" d="M944.13,391.82c-.24,.28-.48,.56-.73,.83,.27,.2,.54,.4,.81,.6-.04-.47-.07-.95-.08-1.43Z"/><path class="c" d="M944.13,391.82c-.24,.28-.48,.56-.73,.83,.27,.2,.54,.4,.81,.6-.04-.47-.07-.95-.08-1.43Z"/><g><path class="b" d="M912.11,393.25c-.27-.2-.54-.4-.81-.6,.25-.27,.49-.55,.73-.83,.01,.48,.04,.96,.08,1.43Z"/><path class="b" d="M1017.55,382.75c-13.07-3.47-26.49,4.3-29.98,17.38-5.06,19-24.16,31.64-43.08,28.8,9.67-10.3,18.67-22.38,26.39-36.55,24.18-44.37,30.03-87.71,30.68-116.26,.6-26.08-3.21-54.08-8.66-63.75-6.65-11.79-21.59-15.95-33.37-9.31-10.93,6.17-15.31,19.46-10.59,30.76,1.16,4.16,4.56,21.66,3.48,45.78-.85,18.98-4.73,46.42-17.71,75.46-2.18-1.73-4.77-3.86-7.87-6.49-36.79-31.25-30.97-81.01-30.71-83.11,1.52-12.06-7.01-23.06-19.07-24.58-12.05-1.52-23.06,7.01-24.58,19.07-.84,6.66-6.19,59.17,27.41,102.81,5.18,6.73,11.28,13.25,18.47,19.35,4.55,3.87,8.84,7.42,12.94,10.54,.25-.27,.49-.55,.73-.83,.01,.48,.04,.96,.08,1.43-.27-.2-.54-.4-.81-.6-11.31,12.84-25.22,23.41-41.59,31.58-1.54,.77-3.1,1.52-4.69,2.25-3.29,1.51-6.5,2.85-9.59,4.03,.13-2.12,.21-4.26,.21-6.42,0-128.03-103.74-231.83-231.83-231.83-75.73,0-142.34,36.84-184.62,93.04-15.23-3.67-30.9-6.11-47.2-6.11-112.07,0-202.86,90.79-202.86,202.85,0,3.17,.8,6,.91,9.17-84.05,24.74-145.8,101.6-145.8,193.68,0,112.07,90.79,202.85,202.85,202.85h492.64c128.08,0,231.83-103.74,231.83-231.83,0-74.77-35.81-140.64-90.9-182.86,6.54-2.8,13.37-6.12,20.29-10.05,9.56,6.63,20.57,11.4,32.57,13.75,5.55,1.08,11.08,1.61,16.55,1.61,38.9,0,74.42-26.45,84.85-65.63,3.49-13.07-4.29-26.49-17.37-29.98Zm-338.86,252.74c-3.41,3.09-7.32,5.49-11.53,7.11-4.2,1.62-8.7,2.47-13.3,2.47-10.44,0-20.44-4.43-27.43-12.15l-73.49-81.1,2.02,205.62c.1,9.89-3.65,19.22-10.57,26.27-6.92,7.06-16.18,11-26.06,11.1h-.37c-20.2,0-36.79-16.43-36.99-36.64l-2.04-207.06-69.42,76.6c-6.63,7.33-15.72,11.63-25.6,12.12-9.86,.49-19.34-2.9-26.67-9.54-7.32-6.63-11.62-15.72-12.11-25.6-.48-9.87,2.91-19.34,9.55-26.66l133.52-147.36c6.98-7.72,16.98-12.15,27.42-12.15s20.41,4.43,27.42,12.15l138.22,152.55c13.69,15.11,12.54,38.56-2.57,52.27Z"/></g></svg>