<?xml version="1.0" encoding="UTF-8"?><svg id="a" xmlns="http://www.w3.org/2000/svg" viewBox="0 0 1080 1080"><defs><style>.b{fill:#c8102e;}</style></defs><path class="b" d="M792.04,287.96c21.4,21.4,21.4,56.22,0,77.63l-171.21,171.21,174.41,174.41c21.4,21.4,21.4,56.22,0,77.62s-56.22,21.4-77.63,0l-174.41-174.41-177.62,177.62c-21.4,21.4-56.22,21.4-77.63,0s-21.4-56.22,0-77.63l177.62-177.62-174.41-174.41c-21.4-21.4-21.4-56.22,0-77.63s56.21-21.4,77.62,0l174.41,174.41,171.21-171.21c21.4-21.4,56.22-21.4,77.63,0Z"/></svg>