<?xml version="1.0" encoding="UTF-8" ?>
<svg
	xmlns="http://www.w3.org/2000/svg"
	xmlns:xlink="http://www.w3.org/1999/xlink"
	width="512px"
	height="663px"
	viewBox="0 0 512 662"
	version="1.1"
>
<g id="surface1">
<path
			style=" stroke:none;fill-rule:nonzero;fill:rgb(78.431373%,12.54902%,18.431373%);fill-opacity:1;"
			d="M 427.613281 369.28125 C 424.5 377.910156 416.316406 383.660156 407.140625 383.660156 L 389.09375 383.660156 L 389.09375 519.902344 C 389.09375 531.90625 379.355469 541.636719 367.34375 541.636719 C 366.429688 541.636719 365.535156 541.578125 364.648438 541.46875 C 363.769531 541.578125 362.875 541.636719 361.964844 541.636719 L 286.667969 541.636719 C 274.65625 541.636719 264.917969 531.90625 264.917969 519.902344 L 264.917969 466.410156 L 203.007812 466.410156 L 203.007812 519.902344 C 203.007812 531.90625 193.273438 541.636719 181.257812 541.636719 L 98.433594 541.636719 C 86.421875 541.636719 76.683594 531.90625 76.683594 519.902344 L 76.683594 383.660156 L 60.789062 383.660156 C 51.609375 383.660156 43.429688 377.910156 40.316406 369.28125 C 37.210938 360.65625 39.863281 351.011719 46.933594 345.175781 L 114.914062 289.074219 C 110.898438 289.824219 106.390625 290.335938 101.546875 290.335938 C 96.703125 290.335938 92 289.875 86.898438 288.707031 C 62.796875 283.214844 43.914062 263.820312 38.792969 239.304688 C 37.136719 231.398438 42.214844 223.640625 50.136719 221.996094 C 58.050781 220.347656 65.808594 225.421875 67.457031 233.328125 C 70.292969 246.886719 80.238281 257.183594 93.414062 260.1875 C 94.4375 260.421875 95.457031 260.605469 96.460938 260.738281 C 93.023438 255.941406 89.902344 250.976562 87.125 245.882812 C 74.984375 223.640625 69.179688 198.75 70.316406 173.890625 C 70.683594 165.824219 77.5625 159.566406 85.609375 159.949219 C 93.691406 160.316406 99.933594 167.164062 99.5625 175.230469 C 99.152344 184.308594 99.804688 196.617188 103.890625 210.394531 C 106.5 205.789062 106.808594 201.574219 106.589844 198.824219 C 105.972656 190.777344 112.011719 183.746094 120.070312 183.128906 C 128.140625 182.507812 135.167969 188.535156 135.789062 196.59375 C 136.316406 203.53125 135.589844 214.148438 129.0625 225.347656 C 125.65625 231.199219 121.472656 235.8125 117.324219 239.398438 C 123.859375 249.460938 132.117188 258.78125 141.71875 266.941406 L 220.109375 202.246094 C 228.148438 195.597656 239.777344 195.597656 247.816406 202.246094 L 323.847656 265 C 325.003906 264.007812 326.125 262.976562 327.21875 261.933594 C 320.023438 257.386719 311.769531 250.179688 306.867188 239.390625 C 302.28125 229.316406 301.542969 217.859375 304.789062 207.117188 C 307.132812 199.378906 315.308594 195.003906 323.046875 197.347656 C 330.785156 199.679688 335.160156 207.84375 332.824219 215.578125 C 331.980469 218.367188 331.417969 222.664062 333.519531 227.285156 C 336.070312 232.886719 341.398438 236.566406 345.25 238.613281 C 346.46875 236.398438 347.589844 234.132812 348.601562 231.832031 C 357.863281 210.945312 357.136719 191.394531 354.902344 178.671875 C 353.507812 170.714844 358.828125 163.132812 366.792969 161.738281 C 374.765625 160.335938 382.34375 165.660156 383.742188 173.617188 C 386.148438 187.28125 387.203125 206.957031 380.835938 228.773438 C 385.195312 228.003906 389.890625 226.449219 394.289062 223.550781 C 409.71875 213.371094 408.363281 194.839844 408.292969 194.0625 C 407.535156 186.011719 413.449219 178.898438 421.496094 178.136719 C 429.542969 177.371094 436.6875 183.304688 437.449219 191.34375 C 438.730469 204.902344 434.488281 232.09375 410.417969 247.964844 C 397.425781 256.535156 383.640625 258.65625 373.175781 258.65625 C 371.167969 258.65625 369.277344 258.582031 367.535156 258.449219 C 361.789062 267.683594 354.753906 276.242188 346.664062 283.832031 L 420.996094 345.175781 C 428.0625 351.011719 430.714844 360.65625 427.613281 369.28125 Z M 427.613281 369.28125 "
		/>
</g>
</svg>
